<?xml version="1.0" standalone="no"?>
<!DOCTYPE svg PUBLIC "-//W3C//DTD SVG 20010904//EN"
 "http://www.w3.org/TR/2001/REC-SVG-20010904/DTD/svg10.dtd">
<svg version="1.0" xmlns="http://www.w3.org/2000/svg"
 width="787.000000pt" height="787.000000pt" viewBox="0 0 787.000000 787.000000"
 preserveAspectRatio="xMidYMid meet">

<g transform="translate(0.000000,787.000000) scale(0.100000,-0.100000)"
fill="#000000" stroke="none">
<path d="M3799 6867 c-211 -109 -217 -392 -11 -514 l42 -25 0 -361 c0 -411 11
-1370 16 -1376 2 -2 45 0 97 4 l94 7 6 171 c4 95 7 483 7 864 0 683 0 692 20
698 30 10 113 95 133 137 55 118 34 251 -56 341 -93 93 -231 115 -348 54z"/>
<path d="M3265 6370 c-22 -5 -81 -24 -131 -43 -266 -102 -430 -125 -1074 -147
-157 -5 -345 -10 -417 -10 -90 0 -133 -4 -133 -11 0 -24 53 -116 88 -152 20
-21 57 -51 82 -65 42 -25 54 -27 157 -27 l113 0 6 -41 c8 -57 35 -98 85 -131
38 -25 53 -28 157 -33 l115 -5 13 -36 c33 -97 106 -164 209 -194 100 -30 226
-5 312 61 17 13 35 24 40 24 5 0 17 -16 27 -35 25 -46 111 -127 164 -154 127
-65 371 -69 640 -11 l52 12 0 372 0 373 -56 6 c-72 7 -115 46 -146 130 -12 32
-33 68 -49 81 -47 40 -157 55 -254 36z"/>
<path d="M4433 6371 c-57 -15 -83 -40 -117 -114 -44 -95 -79 -127 -148 -135
l-53 -7 -3 -368 -3 -367 26 -10 c99 -38 440 -63 547 -41 115 24 224 97 282
190 15 22 29 41 32 41 3 0 25 -13 48 -30 74 -50 123 -65 216 -65 74 0 92 4
144 30 69 35 117 87 147 161 l23 54 90 0 c108 0 154 11 197 47 35 30 68 94 69
133 l0 25 112 0 c127 0 161 12 231 80 40 39 97 130 97 155 0 14 -54 17 -432
28 -757 21 -911 41 -1207 154 -85 32 -122 41 -186 44 -44 2 -95 -1 -112 -5z"/>
<path d="M3230 5210 c-293 -24 -448 -118 -495 -297 -19 -73 -19 -114 0 -188
39 -151 195 -308 405 -410 l55 -26 54 50 c85 81 222 158 361 204 8 2 -3 8 -25
11 -155 27 -339 82 -428 129 -85 45 -107 75 -107 148 0 56 2 60 28 70 15 6 50
9 79 7 44 -4 62 -12 119 -56 85 -66 151 -87 250 -79 86 8 120 20 157 55 80 76
-16 290 -160 355 -69 30 -156 38 -293 27z"/>
<path d="M4379 5187 c-129 -48 -219 -172 -219 -300 0 -31 7 -46 33 -72 26 -26
46 -35 106 -45 126 -23 202 -2 328 92 37 27 51 32 107 32 39 1 70 -4 77 -11 8
-8 12 -36 11 -69 -2 -73 -27 -101 -137 -154 -170 -82 -491 -149 -717 -150
-412 -1 -760 -224 -828 -531 -19 -85 -9 -223 19 -278 31 -60 113 -145 190
-196 l63 -43 56 36 c48 30 220 115 301 148 24 10 23 11 -25 34 -66 32 -136
105 -152 156 -6 23 -12 62 -12 88 0 143 105 185 570 226 229 21 368 58 556
150 209 102 340 218 408 360 28 58 31 75 31 155 0 78 -4 97 -28 146 -49 100
-152 174 -302 215 -83 22 -385 30 -436 11z"/>
<path d="M4620 4165 c-46 -27 -174 -62 -265 -74 -49 -7 -104 -14 -121 -17
l-31 -4 43 -44 c42 -41 44 -47 44 -100 0 -72 -20 -120 -73 -174 -59 -61 -138
-102 -312 -163 -180 -62 -284 -110 -390 -180 -257 -168 -334 -396 -196 -579
41 -54 149 -150 170 -150 7 0 29 13 47 30 38 33 175 101 242 121 23 7 42 15
42 19 0 4 -14 13 -30 20 -17 7 -48 33 -70 57 -87 99 -57 209 77 281 32 17 155
63 272 102 222 74 330 122 443 196 78 52 167 145 197 206 54 113 49 267 -14
396 -20 39 -39 72 -43 72 -4 -1 -18 -7 -32 -15z"/>
<path d="M3945 4049 c-33 -5 -71 -11 -84 -14 l-23 -6 4 -174 c2 -95 6 -176 10
-180 6 -7 116 28 160 51 l28 15 0 159 c0 146 -2 160 -17 159 -10 -1 -45 -5
-78 -10z"/>
<path d="M4360 3329 c-36 -16 -144 -54 -240 -85 -96 -31 -196 -65 -222 -76
l-48 -20 0 -144 c0 -83 4 -144 9 -144 14 0 155 51 163 59 4 3 8 60 9 126 3
166 1 161 61 127 58 -32 125 -100 134 -137 3 -14 1 -39 -6 -56 -32 -75 -121
-128 -345 -204 -77 -26 -171 -63 -210 -84 -115 -60 -200 -158 -235 -273 -16
-54 -15 -167 3 -210 16 -37 92 -128 108 -128 5 0 33 20 63 44 30 24 81 56 114
72 44 21 59 33 55 44 -31 79 -33 93 -23 125 20 59 67 84 347 181 229 79 298
112 367 175 131 120 168 324 86 477 -17 33 -53 82 -78 110 l-47 49 -65 -28z"/>
<path d="M4130 2486 c-113 -40 -224 -82 -248 -95 l-43 -22 3 -57 c3 -54 4 -57
28 -54 33 4 104 39 141 69 22 19 29 33 29 59 0 19 4 34 8 34 20 0 42 -39 42
-73 0 -45 -42 -82 -138 -123 -369 -154 -491 -292 -407 -460 27 -54 61 -93 129
-149 l46 -37 35 26 35 27 0 100 c0 132 1 133 189 182 80 21 173 51 207 67 79
36 156 111 192 188 25 52 27 68 27 177 0 133 -21 216 -53 214 -9 -1 -109 -34
-222 -73z"/>
<path d="M4310 1969 c-53 -43 -161 -85 -352 -134 l-108 -28 0 -74 0 -75 38 23
c59 36 70 44 112 83 40 36 60 40 60 9 0 -45 -60 -92 -365 -278 -222 -136 -311
-215 -243 -215 42 0 648 263 745 323 69 42 139 111 163 157 29 56 35 147 13
189 -22 43 -31 46 -63 20z"/>
<path d="M4122 1495 c-35 -18 -110 -52 -167 -76 l-105 -44 0 -61 c0 -33 9
-150 20 -260 18 -177 22 -201 41 -216 12 -10 27 -18 35 -18 17 0 54 36 54 53
0 6 9 104 20 217 11 113 20 233 20 268 0 34 4 62 10 62 5 0 47 -15 92 -34 111
-45 242 -86 279 -86 62 0 25 49 -116 155 -55 41 -104 75 -110 74 -5 0 -38 -15
-73 -34z"/>
</g>
</svg>
